Coordinates
version=1
nRows=11
nColumns=63
inDegrees=yes

Units are S.I. units (second, meters, Newtons, ...)
If the header above contains a line with 'inDegrees', this indicates whether rotational values are in degrees (yes) or radians (no).

endheader
time	pelvis_tilt	pelvis_list	pelvis_rotation	pelvis_tx	pelvis_ty	pelvis_tz	hip_flexion_r	hip_adduction_r	hip_rotation_r	knee_angle_r	knee_angle_r_beta	ankle_angle_r	subtalar_angle_r	mtp_angle_r	hip_flexion_l	hip_adduction_l	hip_rotation_l	knee_angle_l	knee_angle_l_beta	ankle_angle_l	subtalar_angle_l	mtp_angle_l	L5_S1_Flex_Ext	L5_S1_Lat_Bending	L5_S1_axial_rotation	L4_L5_Flex_Ext	L4_L5_Lat_Bending	L4_L5_axial_rotation	L3_L4_Flex_Ext	L3_L4_Lat_Bending	L3_L4_axial_rotation	L2_L3_Flex_Ext	L2_L3_Lat_Bending	L2_L3_axial_rotation	L1_L2_Flex_Ext	L1_L2_Lat_Bending	L1_L2_axial_rotation	L1_T12_Flex_Ext	L1_T12_Lat_Bending	L1_T12_axial_rotation	Abs_r3	Abs_r2	Abs_r1	Abs_t1	Abs_t2	neck_flexion	neck_bending	neck_rotation	arm_flex_r	arm_add_r	arm_rot_r	elbow_flex_r	pro_sup_r	wrist_flex_r	wrist_dev_r	arm_flex_l	arm_add_l	arm_rot_l	elbow_flex_l	pro_sup_l	wrist_flex_l	wrist_dev_l
      2.44897959	     -3.62428696	     -7.29293085	     83.26126884	      0.33124589	      0.96508807	      0.40488854	      3.12720190	      0.89689766	      7.23058847	      1.68088496	      0.02933698	     25.96499094	     -6.31962542	      0.00000000	     10.13596849	     -0.45952510	      0.95781660	     14.77794095	      0.25792373	     30.16546350	    -11.57097976	      0.00000000	      0.16492650	      0.06540455	      2.34312660	      0.30628500	      0.08698806	      2.48957201	      0.27095774	      0.15902463	      2.48957201	      0.18849449	      0.15902463	      2.05023578	      0.15315074	      0.13337296	      1.90379036	      0.09423900	      0.10131165	      1.75734495	      1.17805347	      0.73986939	     13.03176722	      0.00000000	      0.00000000	     26.72033848	     -0.42524552	      0.05882644	     10.02300951	    -12.36067868	     54.95231407	     59.54362513	     57.13633782	      5.63026247	     13.13055747	     11.19218689	    -15.99046388	     49.37040324	     67.93635376	     80.46514978	     12.63988370	     22.78789299
      2.46938776	     -3.41227462	     -7.13449634	     82.96765752	      0.33009576	      0.96559703	      0.40463431	      3.20084835	      1.06061744	      7.26097638	      2.12765617	      0.03713461	     26.06817945	     -6.29004107	      0.00000000	      9.77767214	     -0.58759335	      0.74387349	     14.66707858	      0.25598881	     30.23357336	    -11.56507672	      0.00000000	      0.15541120	      0.08973217	      2.36146309	      0.28861415	      0.11934379	      2.50905454	      0.25532507	      0.21817481	      2.50905454	      0.17761947	      0.21817481	      2.06628021	      0.14431484	      0.18298185	      1.91868876	      0.08880196	      0.13899514	      1.77109732	      1.11008669	      1.01506829	     13.13374929	      0.00000000	      0.00000000	     26.43782840	     -0.42128486	     -0.00911934	      9.99453174	    -12.18059060	     55.26574198	     57.88496997	     57.44826864	      5.48461578	     13.01339135	     10.93043417	    -15.36879781	     49.72068065	     66.49154111	     80.60893879	     12.17539042	     22.49192947
      2.48979592	     -3.03284431	     -6.91849266	     82.01113619	      0.32898448	      0.96638075	      0.40483913	      3.49095718	      1.37804119	      6.67234043	      3.00448647	      0.05243818	     26.50791446	     -4.63850860	      0.00000000	      9.24186146	     -1.08905450	     -1.23026887	     14.42059087	      0.25168679	     30.67732728	     -9.98032823	      0.00000000	      0.13320239	      0.14878728	      2.54224511	      0.24737015	      0.19788708	      2.70113543	      0.21883820	      0.36176139	      2.70113543	      0.15223701	      0.36176139	      2.22446447	      0.12369174	      0.30340702	      2.06557415	      0.07611184	      0.23047150	      1.90668383	      0.95145133	      1.68311147	     14.13920463	      0.00000000	      0.00000000	     25.87066800	     -0.83278975	     -0.09482132	      9.70159728	    -12.19652315	     54.84708806	     55.47652807	     63.52645290	      6.40575510	      9.03740480	     11.46206383	    -14.65970437	     52.35370740	     63.76449107	     82.03529873	      8.76560753	     15.24192417
      2.51020408	     -2.62417344	     -6.90816233	     81.96624521	      0.32612883	      0.96682852	      0.40545557	      3.94891987	      1.68567290	      6.26621919	      3.81921922	      0.06665795	     26.66363857	     -4.55037067	      0.00000000	      9.21185200	     -1.35084946	     -1.33108719	     14.43781026	      0.25198733	     30.86281385	     -9.79997219	      0.00000000	      0.13070530	      0.21347501	      2.51790996	      0.24273282	      0.28392177	      2.67527933	      0.21473574	      0.51904314	      2.67527933	      0.14938309	      0.51904314	      2.20317122	      0.12137295	      0.43531824	      2.04580184	      0.07468501	      0.33067279	      1.88843247	      0.93361491	      2.41487203	     14.00385983	      0.00000000	      0.00000000	     25.30772350	     -1.09851738	     -0.03511315	      9.52269647	    -12.05515056	     54.77162914	     53.16212009	     64.91209308	      4.92034014	      6.95874499	     11.50263144	    -13.32952480	     53.14792591	     60.43381358	     82.73680384	      6.83666276	      8.88912127
      2.53061224	     -2.26403978	     -7.03864244	     82.16340545	      0.32248847	      0.96692789	      0.40645634	      4.67729149	      1.92430654	      5.65316763	      4.83900629	      0.08445659	     26.91633999	     -4.62291198	      0.00000000	      9.40422965	     -1.53174509	     -1.18635133	     14.40486032	      0.25141224	     31.03009563	     -9.59125066	      0.00000000	      0.13929100	      0.26980473	      2.48725215	      0.25867732	      0.35884029	      2.64270541	      0.22884118	      0.65600322	      2.64270541	      0.15919568	      0.65600322	      2.17634563	      0.12934562	      0.55018581	      2.02089237	      0.07959088	      0.41792753	      1.86543911	      0.99494169	      3.05208507	     13.83335026	      0.00000000	      0.00000000	     24.78524763	     -1.55769540	     -0.69113987	      9.27729267	    -11.76668898	     54.29047337	     50.72544196	     65.63302688	      3.52687742	      5.19814332	     11.40228906	    -11.72074636	     53.15979926	     57.06359567	     82.87491011	      4.54831484	      3.23189549
      2.55102041	     -2.01610227	     -7.04043726	     82.51908575	      0.31824500	      0.96716128	      0.40834718	      5.30803536	      1.93087540	      4.13393317	      5.83048466	      0.10176115	     27.36790397	     -3.56405320	      0.00000000	      9.63483072	     -1.50726640	     -0.70553493	     14.45527918	      0.25229222	     31.02137012	     -9.71042206	      0.00000000	      0.11530159	      0.31235086	      2.52799685	      0.21412659	      0.41542664	      2.68599665	      0.18942898	      0.75944987	      2.68599665	      0.13177819	      0.75944987	      2.21199724	      0.10706906	      0.63694587	      2.05399744	      0.06588333	      0.48383148	      1.89599764	      0.82358774	      3.53337537	     14.05996007	      0.00000000	      0.00000000	     24.27821994	     -2.05859880	     -1.81397273	      9.21633334	    -11.62954434	     53.95191079	     48.33303215	     65.47125936	      2.33729779	      3.55130211	     12.57947484	    -10.19922110	     55.41879425	     53.26684982	     81.47692390	      1.39616031	     -2.97864700
      2.57142857	     -1.87600329	     -7.15445495	     83.14684964	      0.31361613	      0.96710791	      0.41058282	      6.11617335	      1.83528238	      3.16583665	      6.94612628	      0.12123277	     27.73012373	     -3.72427376	      0.00000000	     10.02818982	     -1.33597544	      0.13456523	     14.43119518	      0.25187187	     30.99164231	     -9.70230460	      0.00000000	      0.10816157	      0.33567591	      2.52449785	      0.20086686	      0.44644895	      2.68227896	      0.17769865	      0.81616240	      2.68227896	      0.12361786	      0.81616240	      2.20893562	      0.10043884	      0.68451031	      2.05115450	      0.06180352	      0.51996198	      1.89337338	      0.77258730	      3.79723297	     14.04049967	      0.00000000	      0.00000000	     23.88039867	     -2.71397367	     -3.36704504	      8.85012223	    -11.65928123	     53.00195668	     46.56019950	     63.39389673	      1.78507004	      2.46573638	     13.19451034	     -8.60592919	     55.25528795	     49.98125863	     80.85473749	      0.57910661	     -6.68008811
      2.59183673	     -1.88981543	     -7.23655949	     83.96940162	      0.30885822	      0.96724751	      0.41317336	      7.03783319	      1.53156371	      2.14046768	      8.27551818	      0.14443504	     28.04549129	     -4.03004265	      0.00000000	     10.34145164	     -0.93916910	      1.26059751	     14.20581904	      0.24793832	     30.82682254	     -9.77410833	      0.00000000	      0.09735382	      0.33117251	      2.51201521	      0.18079579	      0.44045944	      2.66901616	      0.15994260	      0.80521284	      2.66901616	      0.11126569	      0.80521284	      2.19801331	      0.09040276	      0.67532698	      2.04101236	      0.05562798	      0.51298622	      1.88401141	      0.69538863	      3.74628968	     13.97107499	      0.00000000	      0.00000000	     23.49520724	     -3.45206150	     -5.50855335	      8.12078082	    -12.15335299	     51.20758488	     45.94174620	     59.09661655	      1.39876009	      2.17833323	     14.09413705	     -7.36156254	     55.09964471	     47.28533141	     79.26032468	     -0.04241516	     -8.37746171
      2.61224490	     -2.03232574	     -7.36685168	     84.76773984	      0.30442953	      0.96756404	      0.41563143	      8.18825858	      1.11247168	      1.41250485	      9.89483976	      0.17269753	     28.34727495	     -4.78907213	      0.00000000	     10.54961094	     -0.46239136	      2.02108372	     13.73499156	      0.23972083	     30.72684584	     -9.29081049	      0.00000000	      0.09810818	      0.30591631	      2.41963093	      0.18219669	      0.40686869	      2.57085787	      0.16118192	      0.74380491	      2.57085787	      0.11212783	      0.74380491	      2.11717707	      0.09110325	      0.62382453	      1.96595013	      0.05605901	      0.47386436	      1.81472320	      0.70077689	      3.46058644	     13.45726136	      0.00000000	      0.00000000	     23.02445082	     -3.86276052	     -7.17481826	      7.26829477	    -13.02332768	     48.95510566	     46.08590886	     57.29493436	      1.15398487	      2.08348500	     14.31498395	     -6.69426781	     53.32182090	     45.45278182	     77.95468190	     -0.75453957	     -8.41694295
      2.63265306	     -2.10281664	     -7.38825099	     85.77433284	      0.29981072	      0.96821116	      0.41789891	      9.40863528	      0.70727677	      0.57440865	     11.84181181	      0.20667861	     28.61190274	     -5.81480640	      0.00000000	     10.56335453	     -0.02252157	      2.88457950	     13.17637511	      0.22997113	     30.69297224	     -8.63789530	      0.00000000	      0.08669426	      0.27963332	      2.24232375	      0.16099992	      0.37191232	      2.38246898	      0.14243001	      0.67990047	      2.38246898	      0.09908288	      0.67990047	      1.96203328	      0.08050429	      0.57022828	      1.82188804	      0.04953710	      0.43315202	      1.68174281	      0.61924847	      3.16326809	     12.47113197	      0.00000000	      0.00000000	     22.16080751	     -4.13347185	     -9.02946838	      6.17416730	    -14.35628388	     46.26938071	     46.76991389	     56.20816140	      1.15021746	      3.13249627	     14.50940398	     -6.70990951	     52.05107026	     43.63220297	     77.42833033	     -1.65096629	     -7.97553990
      2.65306122	     -2.02519397	     -7.39072996	     86.68807849	      0.29505383	      0.96881116	      0.42005971	     10.81916023	      0.40350961	     -0.16460535	     14.10044316	      0.24609916	     28.88116203	     -6.83884038	      0.00000000	     10.46391298	      0.25599170	      3.57135793	     12.53835295	      0.21883554	     30.73742626	     -7.97115788	      0.00000000	      0.06801867	      0.27072978	      1.99096161	      0.12631748	      0.36007061	      2.11539672	      0.11174788	      0.65825239	      2.11539672	      0.07773854	      0.65825239	      1.74209141	      0.06316214	      0.55207217	      1.61765631	      0.03886587	      0.41936043	      1.49322121	      0.48585058	      3.06254945	     11.07313121	      0.00000000	      0.00000000	     21.09284002	     -4.06110659	    -10.29930438	      4.64234014	    -15.68173380	     41.93040268	     47.22705527	     60.26839886	      1.67985894	      5.16709439	     14.26891479	     -7.34516065	     50.66700890	     41.80841372	     80.83370564	     -3.44095300	     -7.17790424
